<svg xmlns="http://www.w3.org/2000/svg" width="14" height="19" viewBox="0 0 14 19">
    <defs>
        <linearGradient id="a" x1="99.652%" x2=".253%" y1="50%" y2="50%">
            <stop offset=".087%" stop-color="#D064FF"/>
            <stop offset="99.937%" stop-color="#FF61AB"/>
        </linearGradient>
    </defs>
    <g fill="none" fill-rule="evenodd">
        <path d="M-5-3h24v24H-5z"/>
        <path fill="url(#a)" fill-rule="nonzero" d="M19 21.375h-1.75v-1.75A2.625 2.625 0 0 0 14.625 17h-5.25a2.625 2.625 0 0 0-2.625 2.625v1.75H5v-1.75a4.375 4.375 0 0 1 4.375-4.375h5.25A4.375 4.375 0 0 1 19 19.625v1.75zM12 13.5A5.25 5.25 0 1 1 12 3a5.25 5.25 0 0 1 0 10.5zm0-1.75a3.5 3.5 0 1 0 0-7 3.5 3.5 0 0 0 0 7z" transform="translate(-5 -3)"/>
    </g>
</svg>
