<svg xmlns="http://www.w3.org/2000/svg" width="36" height="36" viewBox="0 0 36 36">
    <g fill="none" fill-rule="evenodd">
        <rect width="36" height="36" fill="#CCC" rx="14"/>
        <path fill="#FFF"
                d="M22.833 24.167l1.5 1.25v.416H12.667v-.416l1.5-1.25h-1.5c-.92 0-1.667-.747-1.667-1.667v-9.167A3.333 3.333 0 0 1 14.333 10h8.334A3.333 3.333 0 0 1 26 13.333V22.5c0 .92-.746 1.667-1.667 1.667h-1.5zM12.667 13.333v3.334h11.666v-3.334H12.667zM18.5 22.5a1.667 1.667 0 1 0 0-3.333 1.667 1.667 0 0 0 0 3.333z"/>
    </g>
</svg>
