<svg xmlns="http://www.w3.org/2000/svg" width="36" height="36" viewBox="0 0 36 36">
    <g fill="none" fill-rule="evenodd">
        <rect width="36" height="36" fill="#F8C51B" rx="14"/>
        <path fill="#FFF" fill-rule="nonzero" d="M10.893 16A1.898 1.898 0 0 0 9 17.893c0 1.04.852 1.893 1.893 1.893a1.898 1.898 0 0 0 1.893-1.893A1.898 1.898 0 0 0 10.893 16zm13.88 0a1.898 1.898 0 0 0-1.892 1.893c0 1.04.852 1.893 1.893 1.893a1.898 1.898 0 0 0 1.893-1.893A1.898 1.898 0 0 0 24.774 16zm-6.94 0a1.898 1.898 0 0 0-1.893 1.893c0 1.04.852 1.893 1.893 1.893a1.898 1.898 0 0 0 1.893-1.893A1.898 1.898 0 0 0 17.833 16z"/>
    </g>
</svg>
