<svg xmlns="http://www.w3.org/2000/svg" width="36" height="36" viewBox="0 0 36 36">
    <g fill="none" fill-rule="evenodd">
        <rect width="36" height="36" fill="#4DABFF" rx="14"/>
        <path fill="#FFF"
                d="M22.79 22.559l-9.37-.665a.395.395 0 0 0-.419.363.39.39 0 0 0 .363.418l.39.028-.249 3.514a.391.391 0 0 0 .363.418l2.225.157h.462l.186-1.925a1.176 1.176 0 0 1 2.058-.677c.205.237.306.539.284.852l-.17 1.75h2.821a.392.392 0 0 0 .391-.364l.193-2.73.028-.386.39.027.029.001a.391.391 0 0 0 .025-.781zm.222-3.124l-9.371-.664a.395.395 0 0 0-.418.363.39.39 0 0 0 .362.418l.39.028-.11 1.562 1.539.109.053-.412a.391.391 0 1 1 .777.101l-.047.366 1.55.11.065-.42a.391.391 0 1 1 .774.119l-.056.356 1.543.11.084-.435a.392.392 0 0 1 .769.149l-.066.34 1.606.114.11-1.562.391.028h.028a.391.391 0 0 0 .027-.78zm-6.891-7.966a.392.392 0 0 1 .777.1l-.048.367 1.56.11.053-.411a.397.397 0 0 1 .439-.338.392.392 0 0 1 .338.439l-.047.366 1.56.11.054-.411a.392.392 0 0 1 .777.101l-.049.366 1.583.112.083-1.172a1.17 1.17 0 0 0-.703-1.156l.033-.461a1.17 1.17 0 0 0-.284-.853 1.169 1.169 0 0 0-.804-.402l-4.686-.332L16.674 8c-.613 0-1.127.48-1.17 1.092l-.034.462a1.177 1.177 0 0 0-.859 1.045l-.083 1.172 1.539.11.054-.412zm7.334 1.72l-9.371-.665a.386.386 0 0 0-.418.363.39.39 0 0 0 .362.418l.39.027-.11 1.562 1.539.109.053-.412a.392.392 0 0 1 .777.101l-.047.367 1.56.11.053-.411a.392.392 0 0 1 .777.1l-.047.367 1.56.11.054-.412a.392.392 0 0 1 .777.101l-.049.367 1.583.112.11-1.562.392.028h.028a.391.391 0 0 0 .027-.78zm-.221 3.122l-9.372-.664a.39.39 0 1 0-.055.782l.39.027-.11 1.563 1.538.109.054-.413a.392.392 0 0 1 .777.101l-.048.366 1.56.11.054-.411a.392.392 0 0 1 .777.101l-.048.366 1.56.11.054-.41a.392.392 0 1 1 .777.1l-.047.366 1.583.112.11-1.562.392.028h.028a.391.391 0 0 0 .026-.78z"/>
    </g>
</svg>
