<svg xmlns="http://www.w3.org/2000/svg" width="30" height="28" viewBox="0 0 30 28">
    <g fill="none" fill-rule="evenodd">
        <path d="M-7-8h44v44H-7z"/>
        <path fill="#CCC" fill-rule="nonzero" d="M17.092 3.34h9.744c.817 0 1.48.662 1.48 1.48v1.479H1.684V1.86c0-.817.662-1.479 1.48-1.479h10.968l2.959 2.959zM1.813 9.258h26.374a1.48 1.48 0 0 1 1.475 1.602l-1.234 14.795a1.48 1.48 0 0 1-1.474 1.356H3.046c-.77 0-1.41-.59-1.474-1.356L.338 10.86a1.48 1.48 0 0 1 1.475-1.602z"/>
    </g>
</svg>
