<svg xmlns="http://www.w3.org/2000/svg" width="20" height="20" viewBox="0 0 20 20">
    <g fill="none" fill-rule="evenodd">
        <path d="M-2-2h24v24H-2z"/>
        <path fill="#909090"
                d="M1.34 15a10.018 10.018 0 0 1-.978-2.326 3 3 0 0 0 .002-5.347A9.99 9.99 0 0 1 2.865 2.99 3 3 0 0 0 7.496.316a9.99 9.99 0 0 1 5.007.002 3 3 0 0 0 4.632 2.672A9.99 9.99 0 0 1 18.66 5c.433.749.757 1.53.978 2.326a3 3 0 0 0-.002 5.347 9.99 9.99 0 0 1-2.501 4.337 3 3 0 0 0-4.631 2.674 9.99 9.99 0 0 1-5.007-.002 3 3 0 0 0-4.632-2.672A10.018 10.018 0 0 1 1.34 15zm5.66.196a4.993 4.993 0 0 1 2.25 2.77c.499.047 1 .048 1.499.001A4.993 4.993 0 0 1 13 15.197a4.993 4.993 0 0 1 3.525-.565c.29-.408.54-.843.748-1.298A4.993 4.993 0 0 1 16 10c0-1.26.47-2.437 1.273-3.334-.21-.455-.46-.89-.75-1.298A4.993 4.993 0 0 1 13 4.804a4.993 4.993 0 0 1-2.25-2.77c-.499-.047-1-.048-1.499-.001A4.993 4.993 0 0 1 7 4.803a4.993 4.993 0 0 1-3.525.565 7.99 7.99 0 0 0-.748 1.298A4.993 4.993 0 0 1 4 10a4.99 4.99 0 0 1-1.273 3.334c.21.455.46.89.75 1.298A4.993 4.993 0 0 1 7 15.196zM10 13a3 3 0 1 1 0-6 3 3 0 0 1 0 6zm0-2a1 1 0 1 0 0-2 1 1 0 0 0 0 2z"/>
    </g>
</svg>
