<svg xmlns="http://www.w3.org/2000/svg" width="36" height="36" viewBox="0 0 36 36">
    <g fill="none" fill-rule="evenodd">
        <rect width="36" height="36" fill="#CCC" rx="14"/>
        <path fill="#FFF"
                d="M14.851 15.639l2.506-1.82a1.56 1.56 0 0 1 .972-.3 2.045 2.045 0 0 1 1.897 1.422c.146.456.279.764.4.924a3.903 3.903 0 0 0 3.125 1.562v1.564A5.462 5.462 0 0 1 19.528 17l-.545 3.092 1.611 1.352 1.738 4.776-1.47.535-1.595-4.382-2.65-2.224a1.564 1.564 0 0 1-.558-1.489l.398-2.255-.529.384-1.663 2.29-1.265-.92 1.838-2.53.013.01zm4.6-2.512a1.564 1.564 0 1 1 0-3.127 1.564 1.564 0 0 1 0 3.127zm-2.324 10.306l-2.513 2.994-1.197-1.005 2.326-2.772.584-1.704 1.4 1.172-.6 1.315z"/>
    </g>
</svg>
