<svg xmlns="http://www.w3.org/2000/svg" width="36" height="36" viewBox="0 0 36 36">
    <g fill="none" fill-rule="evenodd">
        <rect width="36" height="36" fill="#4DABFF" rx="14"/>
        <path d="M8 8h20v20H8z"/>
        <path fill="#FFF" fill-rule="nonzero" d="M16.192 15.325l-1.525.555v2.953H13v-4.125h.013l4.39-1.598c.203-.078.425-.117.651-.11a2.18 2.18 0 0 1 2.023 1.517c.155.486.296.815.425.985a4.16 4.16 0 0 0 3.331 1.665v1.666a5.822 5.822 0 0 1-4.501-2.122l-.581 3.297 1.749 1.467v5.692h-1.667v-4.915l-1.891-1.587-.606 3.44-5.745-1.013.29-1.642 4.103.723 1.208-6.848zm3.058-2.742a1.667 1.667 0 1 1 0-3.333 1.667 1.667 0 0 1 0 3.333z"/>
    </g>
</svg>
