<svg xmlns="http://www.w3.org/2000/svg" width="36" height="36" viewBox="0 0 36 36">
    <g fill="none" fill-rule="evenodd">
        <rect width="36" height="36" fill="#CCC" rx="14"/>
        <path fill="#FFF" fill-rule="nonzero" d="M22.833 24.167l1.5 1.25v.416H12.667v-.416l1.5-1.25h-1.5c-.92 0-1.667-.747-1.667-1.667v-9.167A3.333 3.333 0 0 1 14.333 10h8.334A3.333 3.333 0 0 1 26 13.333V22.5c0 .92-.746 1.667-1.667 1.667h-1.5zM17.667 17.5v-5.833h-3.334c-.92 0-1.666.746-1.666 1.666V17.5h5zm1.666 0h5v-4.167c0-.92-.746-1.666-1.666-1.666h-3.334V17.5zm-4.583 5a1.25 1.25 0 1 0 0-2.5 1.25 1.25 0 0 0 0 2.5zm7.5 0a1.25 1.25 0 1 0 0-2.5 1.25 1.25 0 0 0 0 2.5z"/>
    </g>
</svg>
