<svg xmlns="http://www.w3.org/2000/svg" width="36" height="36" viewBox="0 0 36 36">
    <g fill="none" fill-rule="evenodd">
        <rect width="36" height="36" fill="#CCC" rx="14"/>
        <path fill="#FFF" fill-rule="nonzero" d="M25.5 18.125v5.625a.75.75 0 0 1-.75.75H24a.75.75 0 0 1-.75-.75V23h-10.5v.75a.75.75 0 0 1-.75.75h-.75a.75.75 0 0 1-.75-.75v-5.625l-.932-.233A.75.75 0 0 1 9 17.165v-.54c0-.207.168-.375.375-.375h1.406l1.604-4.277A1.5 1.5 0 0 1 13.79 11h8.42a1.5 1.5 0 0 1 1.405.973l1.604 4.277h1.406c.207 0 .375.168.375.375v.54a.75.75 0 0 1-.568.727l-.932.233zM12 19.25v1.5c0 .414.336.75.75.75h2.434a.375.375 0 0 0 .33-.552C14.91 19.815 13.739 19.25 12 19.25zm12 0c-1.738 0-2.91.566-3.515 1.698a.375.375 0 0 0 .331.552h2.434a.75.75 0 0 0 .75-.75v-1.5zM13.5 12.5l-1.17 3.513a.75.75 0 0 0 .71.987h9.92a.75.75 0 0 0 .71-.987L22.5 12.5h-9z"/>
    </g>
</svg>
