<svg xmlns="http://www.w3.org/2000/svg" width="36" height="36" viewBox="0 0 36 36">
    <g fill="none" fill-rule="evenodd">
        <rect width="36" height="36" fill="#866DF2" rx="14"/>
        <path fill="#FFF"
                d="M25.5 24.498c0 .445-.36.805-.806.805H11.806a.806.806 0 0 1-.806-.805V15.89c0-.247.113-.48.306-.633l6.445-5.083a.806.806 0 0 1 .998 0l6.445 5.083a.806.806 0 0 1 .306.633v8.608zM18.255 20.7l2.161 1.32-.587-2.463 1.923-1.647-2.524-.202-.973-2.339-.972 2.339-2.524.202 1.923 1.647-.587 2.463 2.16-1.32z"/>
    </g>
</svg>
