<svg xmlns="http://www.w3.org/2000/svg" width="36" height="36" viewBox="0 0 36 36">
    <g fill="none" fill-rule="evenodd">
        <rect width="36" height="36" fill="#FB7286" rx="14"/>
        <path fill="#FFF" d="M14.583 25.314a.942.942 0 0 1-.942-.942V18.44A3.9 3.9 0 0 0 12.782 16l-.153-.19a3.592 3.592 0 0 1-.74-2.855l.525-3.07a.31.31 0 0 1 .307-.26c.144 0 .262.118.262.263v4.012h.902l.406-3.97a.339.339 0 0 1 .337-.304c.174 0 .32.13.34.304l.426 3.893h.9l.121-3.87a.338.338 0 0 1 .338-.327.37.37 0 0 1 .368.325l.4 3.259a3.34 3.34 0 0 1-.902 2.715l-.012.014a3.9 3.9 0 0 0-1.082 2.695v5.74c0 .52-.422.941-.942.941zm8.813-.209a.973.973 0 0 1-.973-.973v-4.305c0-.596-.251-1.164-.692-1.565a1.5 1.5 0 0 1-.432-1.528l1.962-6.757a.648.648 0 0 1 .622-.468c.268 0 .486.218.486.487v14.136a.973.973 0 0 1-.973.973z"/>
    </g>
</svg>
