<svg xmlns="http://www.w3.org/2000/svg" width="20" height="20" viewBox="0 0 20 20">
    <g fill="none" fill-rule="evenodd">
        <path d="M-1-1h22v22H-1z"/>
        <path fill="#333" fill-rule="nonzero" d="M15.528 14.232l3.926 3.925-1.297 1.297-3.925-3.926a8.213 8.213 0 0 1-5.149 1.805 8.253 8.253 0 0 1-8.25-8.25 8.253 8.253 0 0 1 8.25-8.25 8.253 8.253 0 0 1 8.25 8.25 8.213 8.213 0 0 1-1.805 5.15zm-1.838-.68a6.396 6.396 0 0 0 1.81-4.469 6.415 6.415 0 0 0-6.417-6.416 6.414 6.414 0 0 0-6.416 6.416A6.415 6.415 0 0 0 9.083 15.5a6.396 6.396 0 0 0 4.47-1.81l.137-.138z"/>
    </g>
</svg>
