<svg xmlns="http://www.w3.org/2000/svg" width="18" height="16" viewBox="0 0 18 16">
    <path fill="#371E1E" fill-rule="nonzero" d="M9 0c4.97 0 9 3.038 9 6.786 0 3.747-4.03 6.785-9 6.785-.495 0-.99-.03-1.48-.091L3.74 15.87c-.429.22-.58.196-.404-.342l.764-3.05C1.633 11.268 0 9.17 0 6.786 0 3.039 4.03 0 9 0zm5.063 6.682l1.26-1.18a.382.382 0 0 0 0-.544.414.414 0 0 0-.562-.018l-1.653 1.547V5.208a.398.398 0 0 0-.404-.391.398.398 0 0 0-.405.391v2.12a.378.378 0 0 0 0 .184v1.193c0 .216.181.391.405.391a.398.398 0 0 0 .404-.39v-1.13l.366-.343 1.224 1.685c.129.177.381.22.564.096a.384.384 0 0 0 .099-.546l-1.298-1.787v.001zm-2.535 1.595h-1.252V5.221a.399.399 0 0 0-.404-.374.399.399 0 0 0-.404.374v3.448c0 .215.18.391.404.391h1.656a.398.398 0 0 0 .404-.391.398.398 0 0 0-.404-.392zm-5.02-.905l.596-1.415.547 1.415H6.507zm2.162.405l.002-.014a.382.382 0 0 0-.11-.265l-.896-2.321a.59.59 0 0 0-.537-.393.597.597 0 0 0-.56.37L5.145 8.533c-.084.2.015.428.222.51a.41.41 0 0 0 .528-.214l.282-.674h1.775l.256.663a.412.412 0 0 0 .698.12.381.381 0 0 0 .06-.394l-.296-.767zM5.823 5.225c0-.216-.181-.391-.404-.392H2.637a.398.398 0 0 0-.404.392c0 .216.181.391.404.391h.995v3.097c0 .217.18.392.404.392a.398.398 0 0 0 .405-.392V5.616h.977a.398.398 0 0 0 .405-.391z"/>
</svg>
