<svg xmlns="http://www.w3.org/2000/svg" xmlns:xlink="http://www.w3.org/1999/xlink" width="38" height="53" viewBox="0 0 38 53">
    <defs>
        <linearGradient id="a" x1="49.941%" x2="49.941%" y1=".438%" y2="99.539%">
            <stop offset=".063%" stop-color="#FF61AB"/>
            <stop offset="99.913%" stop-color="#D064FF"/>
        </linearGradient>
        <path id="b" d="M0 .241h15.354v28.052H0z"/>
        <path id="d" d="M0 .241h15.354v28.052H0z"/>
        <linearGradient id="e" x1="49.941%" x2="49.941%" y1=".438%" y2="99.539%">
            <stop offset=".063%" stop-color="#FF61AB"/>
            <stop offset="99.913%" stop-color="#D064FF"/>
        </linearGradient>
        <path id="g" d="M84.311 14.916v-1.012c0-.506-.138-1.104-1.058-1.104H58.505c-1.932 0-3.128-1.61-3.128-3.312 0-1.564 1.196-3.22 3.128-3.22h28.152c5.612 0 7.222 2.576 7.222 6.44v8.418H66.095c-.828 0-1.242.276-1.242.966v.276c0 .736.414.92 1.242.92h25.852c2.254 0 3.128 1.702 3.128 3.174 0 1.518-.92 3.128-3.128 3.128H62.83c-5.382 0-7.912-2.622-7.912-7.038V22c0-4.416 2.53-7.084 7.912-7.084h21.482zm8.28 24.334H79.62v9.476h-9.384V39.25H57.263c-2.76 0-3.864-1.84-3.864-3.726 0-1.84 1.058-3.772 3.864-3.772h35.328c2.806 0 3.864 1.932 3.864 3.772 0 1.886-1.104 3.726-3.864 3.726zm37.223 9.384h-19.642c-6.394 0-9.43-3.726-9.43-8.694 0-4.922 3.036-8.786 9.43-8.786h19.642c6.302 0 9.43 3.772 9.43 8.786 0 5.06-3.128 8.694-9.43 8.694zm-5.198-19.596h-22.954c-2.162 0-3.404-1.702-3.404-3.358 0-1.656 1.058-3.22 3.404-3.22h.644v-3.404c0-2.714 1.794-3.772 4.324-3.772s4.37 1.058 4.37 3.772v3.404h3.542v-3.404c0-2.714 1.84-3.772 4.37-3.772 2.53 0 4.324 1.058 4.324 3.772v3.404h1.38c2.346 0 3.404 1.564 3.404 3.22 0 1.656-1.242 3.358-3.404 3.358zm4.784.736V9.856c0-2.99 2.116-4.554 4.554-4.554 2.392 0 4.554 1.61 4.554 4.554v3.542h1.426c2.806 0 3.634 2.116 3.634 3.956 0 1.886-.874 3.956-3.634 3.956h-1.426v8.464H129.4zm-6.348-16.008H102.26c-2.162 0-3.404-1.794-3.404-3.542 0-1.748 1.058-3.588 3.404-3.588h20.792c2.346 0 3.404 1.84 3.404 3.588s-1.242 3.542-3.404 3.542zM112.61 42.24h14.766c2.024 0 2.53-1.288 2.53-2.3 0-1.012-.506-2.208-2.53-2.208H112.61c-2.024 0-2.53 1.196-2.53 2.208 0 1.012.506 2.3 2.53 2.3z"/>
    </defs>
    <g fill="none" fill-rule="evenodd">
        <path fill="url(#a)" d="M5 33.5v13.608c0 2.978 6.268 5.392 14 5.392 7.734 0 14-2.414 14-5.392V33.5c-3.557 1.502-8.512 2.433-14 2.433-5.488 0-10.443-.931-14-2.433zM19 20C8.507 20 0 23.133 0 27s8.507 7 19 7c10.495 0 19-3.133 19-7s-8.505-7-19-7zm0 11c-7.732 0-14-1.792-14-4s6.268-4 14-4c7.734 0 14 1.792 14 4s-6.266 4-14 4z"/>
        <g transform="translate(10)">
            <mask id="c" fill="#fff">
                <use xlink:href="#b"/>
            </mask>
            <path fill="#F28F8F" d="M3.671 12.092c1.09-.177 3.835-4.986 3.67-6.527 2.027-1.202 3.67-.228 3.67 2.175s-1.643 5.325-3.67 6.527-3.67.228-3.67-2.175zm11.487-9.518L12.565.876c-1.332-.914-3.18-.875-5.224.337C3.286 3.616 0 9.718 0 14.842v1.166c0 5.123 6.71 10.69 6.71 10.69l2.743 1.595s-1.648-1.93-1.46-2.325c1.797-3.787 6.69-14.48 6.69-18.663V6.138c0-.934-.11-1.77-.315-2.5l.315.186.475-1.25z" mask="url(#c)"/>
        </g>
        <g transform="translate(10)">
            <mask id="f" fill="#fff">
                <use xlink:href="#d"/>
            </mask>
            <path fill="url(#e)" d="M3.671 12.092c1.09-.177 3.835-4.986 3.67-6.527 2.027-1.202 3.67-.228 3.67 2.175s-1.643 5.325-3.67 6.527-3.67.228-3.67-2.175zm11.487-9.518L12.565.876c-1.332-.914-3.18-.875-5.224.337C3.286 3.616 0 9.718 0 14.842v1.166c0 5.123 6.71 10.69 6.71 10.69l2.743 1.595s-1.648-1.93-1.46-2.325c1.797-3.787 6.69-14.48 6.69-18.663V6.138c0-.934-.11-1.77-.315-2.5l.315.186.475-1.25z" mask="url(#f)"/>
        </g>
        <path fill="#FFC5E1" d="M20.26 16.092c-2.037 1.194-3.69.226-3.69-2.162 0-2.387 1.653-5.29 3.69-6.482 2.038-1.194 3.69-.227 3.69 2.16s-1.652 5.29-3.69 6.484zm7.38-8.074c0-5.09-3.304-7.28-7.38-4.892-4.076 2.387-7.38 8.448-7.38 13.537v1.158c0 3.919 4.377 8.466 6.39 10.35a.987.987 0 0 0 1.569-.296c1.738-3.61 6.802-14.483 6.801-18.698v-1.16z"/>
    </g>
</svg>
