<svg xmlns="http://www.w3.org/2000/svg" xmlns:xlink="http://www.w3.org/1999/xlink" width="82" height="158" viewBox="0 0 82 158">
    <defs>
        <linearGradient id="a" x1="49.941%" x2="49.941%" y1=".563%" y2="99.366%">
            <stop offset=".063%" stop-color="#FFF"/>
            <stop offset="99.913%" stop-color="#FFF"/>
        </linearGradient>
        <path id="b" d="M0 .457h29.092v53.151H0z"/>
        <path id="d" d="M0 .457h29.092v53.151H0z"/>
        <linearGradient id="f" x1="41.034%" x2="60.431%" y1="3.213%" y2="79.69%">
            <stop offset="0%" stop-color="#FFF"/>
            <stop offset="99.929%" stop-color="#FFE4FB"/>
        </linearGradient>
    </defs>
    <g fill="none" fill-rule="evenodd">
        <path fill="#FFF" fill-rule="nonzero" d="M27.82 126.653v-.911c0-.456-.123-.994-.951-.994H4.595c-1.738 0-2.815-1.449-2.815-2.98 0-1.408 1.077-2.899 2.815-2.899h25.337c5.051 0 6.5 2.319 6.5 5.796v7.577H11.426c-.745 0-1.117.248-1.117.869v.248c0 .663.372.828 1.117.828h23.267c2.029 0 2.815 1.532 2.815 2.857 0 1.366-.828 2.815-2.815 2.815H8.487c-4.844 0-7.12-2.36-7.12-6.334v-.497c0-3.974 2.276-6.375 7.12-6.375h19.334zm7.453 21.9H23.598v8.529h-8.446v-8.529H3.478C.994 148.553 0 146.897 0 145.2c0-1.656.952-3.395 3.478-3.395h31.795c2.525 0 3.477 1.739 3.477 3.395 0 1.697-.993 3.353-3.477 3.353zm33.5 8.446H51.095c-5.754 0-8.487-3.354-8.487-7.825 0-4.43 2.733-7.907 8.487-7.907h17.678c5.672 0 8.487 3.395 8.487 7.907 0 4.554-2.815 7.825-8.487 7.825zm-4.678-17.637H43.436c-1.946 0-3.063-1.531-3.063-3.022 0-1.49.952-2.898 3.063-2.898h.58v-3.063c0-2.443 1.614-3.395 3.891-3.395s3.933.952 3.933 3.395v3.063h3.188v-3.063c0-2.443 1.656-3.395 3.933-3.395s3.892.952 3.892 3.395v3.063h1.242c2.111 0 3.063 1.408 3.063 2.898 0 1.49-1.117 3.022-3.063 3.022zm4.305.663v-17.926c0-2.691 1.905-4.099 4.099-4.099 2.153 0 4.099 1.449 4.099 4.099v3.187h1.283c2.525 0 3.27 1.905 3.27 3.56 0 1.698-.786 3.561-3.27 3.561h-1.283v7.618H68.4zm-5.713-14.407H43.974c-1.945 0-3.063-1.615-3.063-3.188 0-1.573.952-3.23 3.063-3.23h18.713c2.112 0 3.064 1.657 3.064 3.23s-1.118 3.188-3.064 3.188zm-9.398 25.626h13.29c1.821 0 2.277-1.159 2.277-2.07 0-.91-.456-1.987-2.277-1.987h-13.29c-1.821 0-2.277 1.076-2.277 1.987s.456 2.07 2.277 2.07z"/>
        <path fill="url(#a)" d="M9.474 63.474v25.784c0 5.641 11.876 10.216 26.526 10.216 14.653 0 26.526-4.575 26.526-10.216V63.474c-6.74 2.845-16.128 4.61-26.526 4.61s-19.786-1.765-26.526-4.61zM36 37.894c-19.882 0-36 5.937-36 13.264C0 58.484 16.118 64.42 36 64.42c19.885 0 36-5.937 36-13.263 0-7.327-16.115-13.263-36-13.263zm0 20.843c-14.65 0-26.526-3.396-26.526-7.58 0-4.183 11.876-7.578 26.526-7.578 14.653 0 26.526 3.395 26.526 7.579 0 4.183-11.873 7.579-26.526 7.579z" transform="translate(5)"/>
        <g transform="translate(23.947)">
            <mask id="c" fill="#fff">
                <use xlink:href="#b"/>
            </mask>
            <path fill="#F28F8F" d="M6.956 22.91c2.067-.334 7.266-9.446 6.954-12.367 3.84-2.277 6.954-.43 6.954 4.123s-3.113 10.09-6.954 12.367c-3.84 2.277-6.954.43-6.954-4.123zM28.72 4.876L23.808 1.66c-2.524-1.732-6.025-1.658-9.898.639C6.227 6.852 0 18.414 0 28.12v2.21c0 9.707 12.714 20.256 12.714 20.256l5.197 3.021s-3.123-3.656-2.766-4.406c3.404-7.175 12.674-27.436 12.674-35.36V11.63c0-1.77-.209-3.356-.595-4.74l.596.354.9-2.369z" mask="url(#c)"/>
        </g>
        <g transform="translate(23.947)">
            <mask id="e" fill="#fff">
                <use xlink:href="#d"/>
            </mask>
            <path fill="#FFA7D2" d="M6.956 22.91c2.067-.334 7.266-9.446 6.954-12.367 3.84-2.277 6.954-.43 6.954 4.123s-3.113 10.09-6.954 12.367c-3.84 2.277-6.954.43-6.954-4.123zM28.72 4.876L23.808 1.66c-2.524-1.732-6.025-1.658-9.898.639C6.227 6.852 0 18.414 0 28.12v2.21c0 9.707 12.714 20.256 12.714 20.256l5.197 3.021s-3.123-3.656-2.766-4.406c3.404-7.175 12.674-27.436 12.674-35.36V11.63c0-1.77-.209-3.356-.595-4.74l.596.354.9-2.369z" mask="url(#e)"/>
        </g>
        <path fill="url(#f)" d="M19.44 30.49c-3.86 2.262-6.99.428-6.99-4.096 0-4.523 3.13-10.022 6.99-12.282 3.862-2.263 6.992-.43 6.992 4.093 0 4.522-3.13 10.023-6.991 12.285zM33.424 15.19c0-9.642-6.26-13.791-13.982-9.269-7.724 4.523-13.984 16.007-13.984 25.65v2.194c0 7.425 8.293 16.04 12.106 19.61a1.87 1.87 0 0 0 2.973-.56c3.293-6.84 12.889-27.443 12.887-35.429v-2.196z" transform="translate(23.947)"/>
    </g>
</svg>
