<svg xmlns="http://www.w3.org/2000/svg" xmlns:xlink="http://www.w3.org/1999/xlink" width="50" height="24" viewBox="0 0 50 24">
    <defs>
        <linearGradient id="b" x1="99.652%" x2=".253%" y1="50%" y2="50%">
            <stop offset=".087%" stop-color="#D064FF"/>
            <stop offset="99.937%" stop-color="#FF61AB"/>
        </linearGradient>
        <path id="a" d="M33.141 39.314v-.56c0-.28-.076-.61-.586-.61H18.83c-1.071 0-1.734-.89-1.734-1.83 0-.865.663-1.78 1.734-1.78h15.611c3.112 0 4.005 1.424 4.005 3.56v4.652H23.04c-.459 0-.689.152-.689.534v.152c0 .407.23.509.69.509h14.335c1.25 0 1.734.94 1.734 1.754 0 .839-.51 1.729-1.734 1.729H21.229c-2.984 0-4.387-1.45-4.387-3.89v-.305c0-2.44 1.403-3.915 4.387-3.915h11.912zm4.592 13.449h-7.194V58h-5.203v-5.237h-7.193c-1.53 0-2.143-1.017-2.143-2.06 0-1.017.587-2.084 2.143-2.084h19.59c1.556 0 2.142 1.067 2.142 2.084 0 1.043-.612 2.06-2.142 2.06zm20.64 5.186H47.481c-3.545 0-5.229-2.06-5.229-4.805 0-2.72 1.684-4.856 5.23-4.856h10.891c3.495 0 5.23 2.085 5.23 4.856 0 2.797-1.735 4.805-5.23 4.805zm-2.882-10.83H42.762c-1.199 0-1.887-.941-1.887-1.856 0-.916.586-1.78 1.887-1.78h.357v-1.881c0-1.5.995-2.085 2.398-2.085s2.423.585 2.423 2.085v1.881h1.965v-1.881c0-1.5 1.02-2.085 2.423-2.085s2.398.585 2.398 2.085v1.881h.765c1.3 0 1.887.864 1.887 1.78 0 .915-.688 1.856-1.887 1.856zm2.653.406V36.517c0-1.653 1.173-2.517 2.525-2.517 1.326 0 2.525.89 2.525 2.517v1.958h.79c1.557 0 2.016 1.17 2.016 2.186 0 1.042-.485 2.186-2.015 2.186h-.79v4.678h-5.051zm-3.52-8.847h-11.53c-1.199 0-1.888-.992-1.888-1.958s.587-1.983 1.888-1.983h11.53c1.3 0 1.887 1.017 1.887 1.983 0 .966-.689 1.958-1.887 1.958zm-5.79 15.737h8.187c1.123 0 1.403-.712 1.403-1.27 0-.56-.28-1.221-1.403-1.221h-8.188c-1.122 0-1.403.66-1.403 1.22 0 .56.28 1.271 1.403 1.271z"/>
    </defs>
    <g fill="none"
            transform="translate(-16 -34)">
        <use fill="#FF61AB" xlink:href="#a"/>
        <use fill="url(#b)" xlink:href="#a"/>
    </g>
</svg>
