<svg xmlns="http://www.w3.org/2000/svg" xmlns:xlink="http://www.w3.org/1999/xlink" width="82" height="158" viewBox="0 0 82 158">
    <defs>
        <linearGradient id="a" x1="49.941%" x2="49.941%" y1=".438%" y2="99.539%">
            <stop offset=".063%" stop-color="#FF61AB"/>
            <stop offset="99.913%" stop-color="#D064FF"/>
        </linearGradient>
        <path id="b" d="M0 .456h29.02v53.018H0z"/>
        <path id="d" d="M0 .456h29.02v53.018H0z"/>
        <linearGradient id="e" x1="49.941%" x2="49.941%" y1=".438%" y2="99.539%">
            <stop offset=".063%" stop-color="#FF61AB"/>
            <stop offset="99.913%" stop-color="#D064FF"/>
        </linearGradient>
        <linearGradient id="g" x1="99.652%" x2=".253%" y1="50%" y2="50%">
            <stop offset=".087%" stop-color="#D064FF"/>
            <stop offset="99.937%" stop-color="#FF61AB"/>
        </linearGradient>
    </defs>
    <g fill="none" fill-rule="evenodd">
        <path fill="url(#a)" d="M9.45 63.315v25.72c0 5.627 11.846 10.19 26.46 10.19 14.617 0 26.46-4.563 26.46-10.19v-25.72c-6.723 2.838-16.088 4.598-26.46 4.598s-19.737-1.76-26.46-4.598zM35.91 37.8C16.077 37.8 0 43.722 0 51.03c0 7.308 16.077 13.23 35.91 13.23 19.835 0 35.91-5.922 35.91-13.23 0-7.308-16.075-13.23-35.91-13.23zm0 20.79c-14.614 0-26.46-3.387-26.46-7.56s11.846-7.56 26.46-7.56c14.617 0 26.46 3.387 26.46 7.56s-11.843 7.56-26.46 7.56z" transform="translate(5)"/>
        <g transform="translate(23.9)">
            <mask id="c" fill="#fff">
                <use xlink:href="#b"/>
            </mask>
            <path fill="#F28F8F" d="M6.938 22.853c2.062-.334 7.248-9.422 6.937-12.336 3.831-2.272 6.937-.43 6.937 4.112s-3.106 10.064-6.937 12.336c-3.831 2.272-6.937.43-6.937-4.112zM28.65 4.864l-4.9-3.208c-2.518-1.728-6.01-1.654-9.874.637C6.211 6.835 0 18.368 0 28.051v2.204C0 39.938 12.682 50.46 12.682 50.46l5.184 3.013s-3.115-3.647-2.759-4.395c3.395-7.157 12.642-27.367 12.642-35.272V11.6c0-1.765-.208-3.346-.593-4.726l.595.352.898-2.363z" mask="url(#c)"/>
        </g>
        <g transform="translate(23.9)">
            <mask id="f" fill="#fff">
                <use xlink:href="#d"/>
            </mask>
            <path fill="url(#e)" d="M6.938 22.853c2.062-.334 7.248-9.422 6.937-12.336 3.831-2.272 6.937-.43 6.937 4.112s-3.106 10.064-6.937 12.336c-3.831 2.272-6.937.43-6.937-4.112zM28.65 4.864l-4.9-3.208c-2.518-1.728-6.01-1.654-9.874.637C6.211 6.835 0 18.368 0 28.051v2.204C0 39.938 12.682 50.46 12.682 50.46l5.184 3.013s-3.115-3.647-2.759-4.395c3.395-7.157 12.642-27.367 12.642-35.272V11.6c0-1.765-.208-3.346-.593-4.726l.595.352.898-2.363z" mask="url(#f)"/>
        </g>
        <path fill="#FFC5E1" d="M43.292 30.413c-3.851 2.257-6.974.428-6.974-4.085 0-4.512 3.123-9.997 6.974-12.252 3.852-2.256 6.974-.428 6.974 4.083s-3.122 9.998-6.974 12.254zm13.948-15.26c0-9.617-6.245-13.757-13.948-9.245-7.704 4.511-13.949 15.966-13.949 25.584v2.19c0 7.406 8.273 16 12.076 19.56.927.869 2.412.59 2.966-.559C47.67 45.862 57.241 25.31 57.24 17.344v-2.19z"/>
        <path fill="url(#g)"
                d="M27.82 126.653v-.911c0-.456-.123-.994-.951-.994H4.595c-1.738 0-2.815-1.449-2.815-2.98 0-1.408 1.077-2.899 2.815-2.899h25.337c5.051 0 6.5 2.319 6.5 5.796v7.577H11.426c-.745 0-1.117.248-1.117.869v.248c0 .663.372.828 1.117.828h23.267c2.029 0 2.815 1.532 2.815 2.857 0 1.366-.828 2.815-2.815 2.815H8.487c-4.844 0-7.12-2.36-7.12-6.334v-.497c0-3.974 2.276-6.375 7.12-6.375h19.334zm7.453 21.9H23.598v8.529h-8.446v-8.529H3.478C.994 148.553 0 146.897 0 145.2c0-1.656.952-3.395 3.478-3.395h31.795c2.525 0 3.477 1.739 3.477 3.395 0 1.697-.993 3.353-3.477 3.353zm33.5 8.446H51.095c-5.754 0-8.487-3.354-8.487-7.825 0-4.43 2.733-7.907 8.487-7.907h17.678c5.672 0 8.487 3.395 8.487 7.907 0 4.554-2.815 7.825-8.487 7.825zm-4.678-17.637H43.436c-1.946 0-3.063-1.531-3.063-3.022 0-1.49.952-2.898 3.063-2.898h.58v-3.063c0-2.443 1.614-3.395 3.891-3.395s3.933.952 3.933 3.395v3.063h3.188v-3.063c0-2.443 1.656-3.395 3.933-3.395s3.892.952 3.892 3.395v3.063h1.242c2.111 0 3.063 1.408 3.063 2.898 0 1.49-1.117 3.022-3.063 3.022zm4.305.663v-17.926c0-2.691 1.905-4.099 4.099-4.099 2.153 0 4.099 1.449 4.099 4.099v3.187h1.283c2.525 0 3.27 1.905 3.27 3.56 0 1.698-.786 3.561-3.27 3.561h-1.283v7.618H68.4zm-5.713-14.407H43.974c-1.945 0-3.063-1.615-3.063-3.188 0-1.573.952-3.23 3.063-3.23h18.713c2.112 0 3.064 1.657 3.064 3.23s-1.118 3.188-3.064 3.188zm-9.398 25.626h13.29c1.821 0 2.277-1.159 2.277-2.07 0-.91-.456-1.987-2.277-1.987h-13.29c-1.821 0-2.277 1.076-2.277 1.987s.456 2.07 2.277 2.07z"/>
    </g>
</svg>
