<svg xmlns="http://www.w3.org/2000/svg" width="62" height="35" viewBox="0 0 62 35">
    <defs>
        <filter id="a" width="240%" height="520%" x="-70%" y="-210%" filterUnits="objectBoundingBox">
            <feGaussianBlur in="SourceGraphic" stdDeviation="7"/>
        </filter>
    </defs>
    <g fill="none" fill-rule="evenodd" transform="translate(16 1)">
        <ellipse cx="15" cy="12.5" fill="#FFF" rx="6" ry="6.5"/>
        <path fill="#F8C51B" fill-rule="nonzero" stroke="#BFBFBF" d="M23.766 21.766L14.75 30.78l-9.016-9.015c-4.979-4.98-4.979-13.052 0-18.032 4.98-4.979 13.052-4.979 18.032 0 4.979 4.98 4.979 13.052 0 18.032zm-9.016-3.35a5.667 5.667 0 1 0 0-11.333 5.667 5.667 0 0 0 0 11.334zm0-2.833a2.833 2.833 0 1 1 0-5.666 2.833 2.833 0 0 1 0 5.666z"/>
    </g>
</svg>
