<svg xmlns="http://www.w3.org/2000/svg" width="62" height="35" viewBox="0 0 62 35">
    <defs>
        <filter id="a" width="240%" height="520%" x="-70%" y="-210%" filterUnits="objectBoundingBox">
            <feGaussianBlur in="SourceGraphic" stdDeviation="7"/>
        </filter>
    </defs>
    <g fill="none" fill-rule="evenodd" transform="translate(16 1)">
        <ellipse cx="15" cy="12.5" fill="#FFF" stroke="#979797" rx="8" ry="8.5"/>
        <path fill="#FB7286"
                stroke="#BFBFBF" d="M23.766 21.766L14.75 30.78l-9.016-9.015c-4.979-4.98-4.979-13.052 0-18.032 4.98-4.979 13.052-4.979 18.032 0 4.979 4.98 4.979 13.052 0 18.032zm-9.016-3.35a5.667 5.667 0 1 0 0-11.333 5.667 5.667 0 0 0 0 11.334z"/>
        <path fill="#7D7D7D"
                stroke="#7D7D7D" stroke-width=".3" d="M14.3 12.3h3.5a.5.5 0 1 1 0 1h-6a.5.5 0 1 1 0-1h2.5z"/>
    </g>
</svg>
