<svg xmlns="http://www.w3.org/2000/svg" width="24" height="24" viewBox="0 0 24 24">
    <defs>
        <linearGradient id="a" x1="49.941%" x2="49.941%" y1=".563%" y2="99.366%">
            <stop offset=".063%" stop-color="#FFF"/>
            <stop offset="99.913%" stop-color="#FFF"/>
        </linearGradient>
    </defs>
    <g fill="none" fill-rule="evenodd">
        <circle cx="12" cy="12" r="12" fill="#D8D8D8"/>
        <path fill="#FFF"
                d="M16 19H8v-1a2.5 2.5 0 0 1 2.5-2.5h3A2.5 2.5 0 0 1 16 18v1zm-6.598-6c-.536-.928-.683-1.403-.147-2.33.265-.46 2.337-.986 3.693-.878 1.385.111 2.052.87 2.052 1.708A3 3 0 0 1 9.402 13z"/>
        <path fill="url(#a)" d="M1.053 3.508v2.93C1.053 7.08 2.373 7.6 4 7.6c1.628 0 2.947-.52 2.947-1.161V3.508c-.749.323-1.792.524-2.947.524s-2.198-.2-2.947-.524zM4 .6c-2.21 0-4 .675-4 1.508s1.79 1.507 4 1.507 4-.674 4-1.507C8 1.275 6.21.6 4 .6zm0 2.37c-1.628 0-2.947-.387-2.947-.862 0-.476 1.32-.862 2.947-.862 1.628 0 2.947.386 2.947.862 0 .475-1.319.861-2.947.861z" transform="rotate(-180 8 6.6)"/>
    </g>
</svg>
